<svg xmlns="http://www.w3.org/2000/svg" xmlns:xlink="http://www.w3.org/1999/xlink" width="537" height="81" viewBox="0 0 537 81"><defs><clipPath id="b"><rect width="537" height="81"/></clipPath></defs><g id="a" clip-path="url(#b)"><path d="M61.878,87.092A37.428,37.428,0,0,1,39,52.577V19.57a10.618,10.618,0,0,1,21.236,0V52.379a16.517,16.517,0,1,0,33.034,0V20.656q-.054-.536-.054-1.086a10.353,10.353,0,1,1,20.7,0V52.577A37.48,37.48,0,0,1,61.878,87.092Z" transform="translate(-39 -9)"/><path d="M54.216,70.465q0-.55.054-1.086V37.656a16.517,16.517,0,1,0-33.034,0V70.465A10.618,10.618,0,0,1,0,70.465V37.458A37.468,37.468,0,0,1,71.973,22.877a37.207,37.207,0,0,1,2.944,14.581V70.465h0a10.353,10.353,0,1,1-20.7,0Z" transform="translate(88)"/><rect width="22" height="81" rx="11" transform="translate(176)"/><path d="M-1958.882-1207H-1979a11,11,0,0,1-11-11,11,11,0,0,1,11-11h38.167a3.754,3.754,0,0,0,3.75-3.75,3.754,3.754,0,0,0-3.75-3.75h-23.417a25.589,25.589,0,0,1-10.022-2.024,25.664,25.664,0,0,1-8.186-5.518,25.669,25.669,0,0,1-5.519-8.186A25.578,25.578,0,0,1-1990-1262.25a25.586,25.586,0,0,1,2.023-10.023,25.663,25.663,0,0,1,5.519-8.185,25.665,25.665,0,0,1,8.186-5.519,25.471,25.471,0,0,1,5.9-1.7,11.025,11.025,0,0,1,2.67-.326h39.618a11,11,0,0,1,11,11,11,11,0,0,1-11,11h-38.167a3.754,3.754,0,0,0-3.75,3.75,3.754,3.754,0,0,0,3.75,3.75h23.417a25.586,25.586,0,0,1,10.023,2.023,25.662,25.662,0,0,1,8.185,5.519,25.7,25.7,0,0,1,5.519,8.185,25.585,25.585,0,0,1,2.023,10.023,25.586,25.586,0,0,1-2.023,10.023,25.671,25.671,0,0,1-5.519,8.185,25.664,25.664,0,0,1-8.185,5.519,25.605,25.605,0,0,1-10.023,2.023Z" transform="translate(2201.083 1288)"/><path d="M-1949-1207h-16a24.853,24.853,0,0,1-9.732-1.965,24.906,24.906,0,0,1-7.946-5.359,24.941,24.941,0,0,1-5.358-7.946A24.826,24.826,0,0,1-1990-1232v-31a24.819,24.819,0,0,1,1.965-9.731,24.9,24.9,0,0,1,5.358-7.947,24.922,24.922,0,0,1,7.946-5.358,24.8,24.8,0,0,1,6.206-1.719,11.076,11.076,0,0,1,2.324-.246h24.868a25.584,25.584,0,0,1,10.023,2.023,25.659,25.659,0,0,1,8.185,5.519,25.7,25.7,0,0,1,5.519,8.185,25.584,25.584,0,0,1,2.023,10.023,25.584,25.584,0,0,1-2.023,10.023,25.672,25.672,0,0,1-5.519,8.185,25.659,25.659,0,0,1-8.185,5.519,25.606,25.606,0,0,1-10.023,2.023H-1964.5a3.75,3.75,0,0,0-3.449,2.277A6.013,6.013,0,0,0-1962-1229h35.417a10.93,10.93,0,0,1,7.778,3.222,10.929,10.929,0,0,1,3.222,7.779,10.924,10.924,0,0,1-3.222,7.778,10.926,10.926,0,0,1-7.778,3.222H-1949Zm7.668-51.5a3.754,3.754,0,0,0,3.75-3.75,3.754,3.754,0,0,0-3.75-3.75H-1962a6.012,6.012,0,0,0-5.95,5.223,3.75,3.75,0,0,0,3.449,2.278h23.168Z" transform="translate(2288 1288)"/><path d="M-1949-1207h-16a24.853,24.853,0,0,1-9.732-1.965,24.906,24.906,0,0,1-7.946-5.359,24.941,24.941,0,0,1-5.358-7.946A24.826,24.826,0,0,1-1990-1232v-31a24.819,24.819,0,0,1,1.965-9.731,24.9,24.9,0,0,1,5.358-7.947,24.922,24.922,0,0,1,7.946-5.358,24.8,24.8,0,0,1,6.206-1.719,11.076,11.076,0,0,1,2.324-.246h24.868a25.584,25.584,0,0,1,10.023,2.023,25.659,25.659,0,0,1,8.185,5.519,25.7,25.7,0,0,1,5.519,8.185,25.584,25.584,0,0,1,2.023,10.023,25.584,25.584,0,0,1-2.023,10.023,25.672,25.672,0,0,1-5.519,8.185,25.659,25.659,0,0,1-8.185,5.519,25.606,25.606,0,0,1-10.023,2.023H-1964.5a3.75,3.75,0,0,0-3.449,2.277A6.013,6.013,0,0,0-1962-1229h35.417a10.93,10.93,0,0,1,7.778,3.222,10.929,10.929,0,0,1,3.222,7.779,10.924,10.924,0,0,1-3.222,7.778,10.926,10.926,0,0,1-7.778,3.222H-1949Zm7.668-51.5a3.754,3.754,0,0,0,3.75-3.75,3.754,3.754,0,0,0-3.75-3.75H-1962a6.012,6.012,0,0,0-5.95,5.223,3.75,3.75,0,0,0,3.449,2.278h23.168Z" transform="translate(2374.417 1288)"/><rect width="22" height="81" rx="11" transform="translate(472)"/><rect width="22" height="35" rx="11" transform="translate(524.54 -4.583) rotate(45)"/><rect width="22" height="78.665" rx="11" transform="translate(468.916 30.076) rotate(-45)"/></g></svg>