<svg xmlns="http://www.w3.org/2000/svg" xmlns:xlink="http://www.w3.org/1999/xlink" width="256" height="256" viewBox="0 0 256 256"><defs><clipPath id="b"><rect width="256" height="256"/></clipPath></defs><g id="a" clip-path="url(#b)"><g transform="translate(5.034 -14.697)"><path d="M93.549,270.7a9.791,9.791,0,0,1-6.936-16.715l34.949-34.949a50.313,50.313,0,0,1,35.807-14.828h33.38a40.683,40.683,0,0,0,40.635-40.61V98.917a40.688,40.688,0,0,0-40.635-40.635H60.217A40.688,40.688,0,0,0,19.582,98.917v64.678a40.667,40.667,0,0,0,40.635,40.61H78.451a9.8,9.8,0,0,1,0,19.607H60.217A60.31,60.31,0,0,1,0,163.595V98.917A60.279,60.279,0,0,1,60.217,38.7H190.749a60.279,60.279,0,0,1,60.217,60.217v64.678a60.279,60.279,0,0,1-60.217,60.217H157.393a30.888,30.888,0,0,0-21.96,9.093l-34.949,34.924A9.758,9.758,0,0,1,93.549,270.7Z"/><path d="M284.766,386.82m-12.4,0a12.4,12.4,0,1,0,12.4-12.4A12.4,12.4,0,0,0,272.365,386.82Z" transform="translate(-205.613 -253.44)"/><path d="M473.866,386.82m-12.4,0a12.4,12.4,0,1,0,12.4-12.4A12.4,12.4,0,0,0,461.465,386.82Z" transform="translate(-348.367 -253.44)"/><path d="M662.966,386.82m-12.4,0a12.4,12.4,0,1,0,12.4-12.4A12.4,12.4,0,0,0,650.565,386.82Z" transform="translate(-491.122 -253.44)"/></g></g></svg>