<svg xmlns="http://www.w3.org/2000/svg" xmlns:xlink="http://www.w3.org/1999/xlink" width="256" height="256" viewBox="0 0 256 256"><defs><clipPath id="b"><rect width="256" height="256"/></clipPath></defs><g id="a" clip-path="url(#b)"><g transform="translate(-33.836 -58.166)"><path d="M293.163,330.014H230.308a6.506,6.506,0,1,0,0,13.011h62.856a6.506,6.506,0,1,0,0-13.011Zm0,47.5H230.308a6.506,6.506,0,0,0,0,13.011h62.856a6.506,6.506,0,0,0,0-13.011Zm0,47.645H230.308a6.506,6.506,0,1,0,0,13.011h62.856a6.506,6.506,0,0,0,0-13.011Zm78.581,0H355.925a6.506,6.506,0,1,0,0,13.011h15.819a6.506,6.506,0,0,0,0-13.011Z" transform="translate(-137.041 -191.039)" stroke="#000" stroke-width="5"/><path d="M277.528,287.1h-9.173V218.539a32.527,32.527,0,0,0-15.445-27.567L198.619,157.79V104.482a32.292,32.292,0,0,0-40.905-31.124L78.15,97.462a32.421,32.421,0,0,0-23.635,31.124V287.1H45.341a6.505,6.505,0,1,0,0,13.011h232.14a6.506,6.506,0,0,0,.047-13.011Zm-91.92,0H67.526V128.585a19.392,19.392,0,0,1,14.181-18.627l79.517-24.1a19.336,19.336,0,0,1,24.384,18.627Zm69.736,0H198.572V173l47.5,29.018a19.341,19.341,0,0,1,9.22,16.474V287.1Z" transform="translate(0 0)" stroke="#000" stroke-width="5"/></g></g></svg>