<svg xmlns="http://www.w3.org/2000/svg" xmlns:xlink="http://www.w3.org/1999/xlink" width="256" height="256" viewBox="0 0 256 256"><defs><clipPath id="b"><rect width="256" height="256"/></clipPath></defs><g id="a" clip-path="url(#b)"><g transform="translate(-10.319 -14.768)"><path d="M23.382,143.806a8.7,8.7,0,0,1-5.895-15.114L132.763,22.728a8.72,8.72,0,0,1,11.8.017L259.173,128.71a8.7,8.7,0,0,1-11.818,12.781L138.635,40.969,29.271,141.509a8.668,8.668,0,0,1-5.889,2.3Z" transform="translate(0 0)"/><path d="M292.77,630.324H135.576a20.329,20.329,0,0,1-20.306-20.306V515.653a8.7,8.7,0,1,1,17.405,0v94.366a2.9,2.9,0,0,0,2.9,2.9H292.77a2.909,2.909,0,0,0,2.9-2.9V515.653a8.7,8.7,0,1,1,17.405,0v94.366a20.329,20.329,0,0,1-20.306,20.306Z" transform="translate(-75.521 -365.227)"/><path d="M408.125,701.515H365.65a20.329,20.329,0,0,1-20.306-20.306v-59.12a20.329,20.329,0,0,1,20.306-20.306h42.475a20.329,20.329,0,0,1,20.306,20.306V681.2A20.33,20.33,0,0,1,408.125,701.515ZM365.65,619.187a2.9,2.9,0,0,0-2.9,2.9V681.2a2.9,2.9,0,0,0,2.9,2.9h42.475a2.909,2.909,0,0,0,2.9-2.9V622.09a2.91,2.91,0,0,0-2.9-2.9H365.65Z" transform="translate(-248.238 -436.417)"/></g></g></svg>