<svg xmlns="http://www.w3.org/2000/svg" xmlns:xlink="http://www.w3.org/1999/xlink" width="256" height="256" viewBox="0 0 256 256"><defs><clipPath id="b"><rect width="256" height="256"/></clipPath></defs><g id="a" clip-path="url(#b)"><path d="M287.267,231.091c-1.778-1.778-3.555-3.555-5.333-3.555-5.333,0-8.888,3.555-8.888,8.888,0,3.555,1.778,5.333,3.555,7.11h0a93.712,93.712,0,0,1,37.329,69.325h16c-1.778-33.774-17.776-62.215-42.662-81.768m-67.548-30.219c-32,0-58.66-26.663-58.66-58.66-1.778-33.774,24.886-60.437,58.66-60.437,32,0,58.66,26.663,58.66,58.66C278.379,174.209,251.716,200.873,219.719,200.873Zm76.435-58.66C296.155,99.551,262.381,64,217.942,64c-40.884,0-76.435,33.774-76.435,78.213,0,28.441,16,53.327,39.106,67.548-44.439,12.443-76.435,53.327-78.213,103.1h16c1.778-51.549,44.439-92.434,95.989-94.211h5.333A75.87,75.87,0,0,0,296.155,142.213Z" transform="translate(-88.164 -56.859)"/></g></svg>