<svg xmlns="http://www.w3.org/2000/svg" xmlns:xlink="http://www.w3.org/1999/xlink" width="256" height="256" viewBox="0 0 256 256"><defs><clipPath id="b"><rect width="256" height="256"/></clipPath></defs><g id="a" clip-path="url(#b)"><path d="M251.362,116.184h20.567A20.567,20.567,0,0,1,292.5,136.752v84.018a30.861,30.861,0,1,1-20.567,0V136.752H251.362V167.6l-46.276-41.135,46.276-41.135v30.851ZM148.525,155.571a30.861,30.861,0,1,1,20.567,0v65.2a30.861,30.861,0,1,1-20.567,0Zm10.284-18.819a10.284,10.284,0,1,0-10.284-10.284,10.284,10.284,0,0,0,10.284,10.284Zm0,123.4a10.284,10.284,0,1,0-10.284-10.284A10.284,10.284,0,0,0,158.809,260.156Zm123.4,0a10.284,10.284,0,1,0-10.284-10.284A10.284,10.284,0,0,0,282.213,260.156Z" transform="translate(-86.511 -55.031)"/></g></svg>