<svg xmlns="http://www.w3.org/2000/svg" xmlns:xlink="http://www.w3.org/1999/xlink" width="256" height="256" viewBox="0 0 256 256"><defs><clipPath id="b"><rect width="256" height="256"/></clipPath></defs><g id="a" clip-path="url(#b)"><path d="M365.879,53.374c-.75,0-1.483,0-2.2.071-.715.054-1.447.179-2.161.286a37.584,37.584,0,0,0-4.287.929q-2.308.645-4.573,1.429l-5.305,1.894-10.718,3.751c-3.144,1.125-5.948,2.09-8.5,3.09a53.591,53.591,0,0,0-7.056,3.144,28.654,28.654,0,0,0-6.27,4.484,20.722,20.722,0,0,0-3.573,4.823,16.506,16.506,0,0,0-1.876,7.86,21.331,21.331,0,0,0,.357,3.93,26.082,26.082,0,0,0,1.554,5.538,55.107,55.107,0,0,0,3.323,7.056c1.3,2.447,2.8,5.073,4.466,8.038l6.145,10.879,2.233,3.894c.715,1.233,1.429,2.376,2.144,3.465a29.546,29.546,0,0,0,3.787,4.466l.661.554-19.471,83.832c-1.072,4.627-2.036,8.753-2.858,12.54q-.6,2.706-1.125,5.43a62.809,62.809,0,0,0-1.25,14.166,38.1,38.1,0,0,0,1.358,8.664v.036l.179.625a36.744,36.744,0,0,0,5.895,11.79q2.937,3.905,6.252,7.5c1.2,1.286,2.465,2.608,3.823,3.983,2.715,2.733,5.752,5.663,9.11,8.967,2.787,2.715,5.234,5.127,7.538,7.288,1.161,1.072,2.269,2.09,3.394,3.037,1.108.947,2.2,1.8,3.3,2.644a34.229,34.229,0,0,0,3.448,2.322c.607.357,1.25.679,1.858,1a27.22,27.22,0,0,0,3.841,1.608,22.294,22.294,0,0,0,11.075.518c.715-.161,1.34-.357,2-.554a25.883,25.883,0,0,0,5.716-2.59,36.792,36.792,0,0,0,3.465-2.3q1.694-1.269,3.3-2.644,1.728-1.483,3.394-3.037c2.322-2.144,4.752-4.573,7.538-7.306,3.358-3.287,6.4-6.216,9.11-8.967q3.689-3.758,7.145-7.735a45.7,45.7,0,0,0,7.288-11.307,34.546,34.546,0,0,0,1.5-4.144v-.036l.214-.625v-.089a36.744,36.744,0,0,0,1.358-8.646,63.056,63.056,0,0,0-1.25-14.166q-.52-2.733-1.125-5.448c-.822-3.769-1.786-7.9-2.858-12.5l-19.471-83.85.625-.554a24.83,24.83,0,0,0,3.769-4.466q1.162-1.691,2.2-3.465l2.233-3.894,6.145-10.9v-.036c1.661-2.947,3.162-5.538,4.466-7.985a53.4,53.4,0,0,0,3.3-7.056,29.621,29.621,0,0,0,1.572-5.538,23.652,23.652,0,0,0,.214-5.966,16.345,16.345,0,0,0-2.751-7.574,19.647,19.647,0,0,0-2.554-3.072,23.684,23.684,0,0,0-3.037-2.5,28.252,28.252,0,0,0-3.233-2,53.285,53.285,0,0,0-7.056-3.126c-2.554-1-5.359-1.965-8.5-3.072L384.4,57.983,379.1,56.09q-2.264-.784-4.573-1.429a37.087,37.087,0,0,0-4.287-.929,21.668,21.668,0,0,0-2.161-.286Q366.979,53.367,365.879,53.374Zm0,17.863a9.468,9.468,0,0,1,1.715.179,24.031,24.031,0,0,1,2.394.589c1.947.536,4.609,1.429,8.449,2.787l10.718,3.8c3.144,1.108,5.841,2.072,8.039,2.93q2.627,1.028,5.18,2.233a12.775,12.775,0,0,1,1.983,1.2c.125.089.161.143.179.2l.036.143.071.143a.893.893,0,0,1,0,.357,13.311,13.311,0,0,1-.768,2.286q-.464,1.154-1.018,2.269-2.775,5.314-5.716,10.539l-6.145,10.9q-1.605,2.912-3.394,5.716a14.541,14.541,0,0,1-1,1.393,7.592,7.592,0,0,1-3.144,2.09q-2.5.848-5.055,1.536-3.4.973-6.877,1.643c-1.09.2-2.144.357-3.09.482a20.276,20.276,0,0,1-2.554.179,20.058,20.058,0,0,1-2.554-.179,73.492,73.492,0,0,1-9.986-2.144q-2.542-.679-5.037-1.518a8.449,8.449,0,0,1-2.269-1.25,6.077,6.077,0,0,1-.893-.84,14.467,14.467,0,0,1-1-1.393q-1.788-2.8-3.394-5.716l-6.127-10.9q-2.942-5.223-5.716-10.539-.553-1.114-1.018-2.269a13.184,13.184,0,0,1-.768-2.3.894.894,0,0,1,0-.357l.072-.125a.24.24,0,0,1,.036-.143c.018-.054.054-.107.179-.2a12.682,12.682,0,0,1,1.983-1.2q2.551-1.2,5.18-2.233c2.2-.857,4.895-1.822,8.038-2.93l10.718-3.8c3.841-1.358,6.5-2.233,8.431-2.787.982-.268,1.751-.464,2.412-.589A9.611,9.611,0,0,1,365.879,71.238Zm-15.22,69.042,1.858.536a78.591,78.591,0,0,0,8.789,1.626,42.586,42.586,0,0,0,13.612-.7c1.465-.268,2.912-.589,4.323-.929l1.858-.536,18.685,80.564c1.072,4.609,1.983,8.574,2.68,11.968q.9,4.339,1.59,8.717c.179,1.25.3,2.394.375,3.448a20.686,20.686,0,0,1-.554,7.753l.036-.036-.107.357v.036l-.036.036a16.471,16.471,0,0,1-2.019,4.43q-.766,1.243-1.643,2.412-1.039,1.373-2.161,2.679-2.922,3.314-6,6.484-9.149,9.3-18.739,18.149a45.2,45.2,0,0,1-4.18,3.162,9.749,9.749,0,0,1-1.25.715,4.591,4.591,0,0,1-1.786.375h-.214a4.592,4.592,0,0,1-1.786-.375,27.014,27.014,0,0,1-3.072-1.965q-1.211-.916-2.358-1.911-1.452-1.269-2.858-2.59-8.1-7.615-15.88-15.559-3.079-3.169-6-6.484-1.123-1.3-2.161-2.679-.877-1.167-1.643-2.412a16.417,16.417,0,0,1-2.019-4.43l-.143-.393h.036a21.133,21.133,0,0,1-.554-7.735c.071-1.072.214-2.233.375-3.465.179-1.233.411-2.554.661-4,.268-1.465.554-3.019.911-4.716.715-3.394,1.608-7.36,2.68-11.968l18.7-80.564Z" transform="translate(-237.879 -53.374)"/></g></svg>