<svg xmlns="http://www.w3.org/2000/svg" xmlns:xlink="http://www.w3.org/1999/xlink" width="256" height="256" viewBox="0 0 256 256"><defs><clipPath id="b"><rect width="256" height="256"/></clipPath></defs><g id="a" clip-path="url(#b)"><path d="M253.329,95.983c-1.5-7.905-6.323-13.013-12.3-13.013l-.2,0h-1.1A31.371,31.371,0,0,1,208.4,51.637c0-5.607,2.7-11.893,2.728-11.948a16.445,16.445,0,0,0-5.536-19.877l-.378-.266L173.458,1.9l-.4-.176A16.769,16.769,0,0,0,166.327.374a18.186,18.186,0,0,0-12.921,5.271C149.924,9.239,137.9,19.5,128.663,19.5c-9.321,0-21.415-10.464-24.913-14.126A18.187,18.187,0,0,0,90.725,0a16.739,16.739,0,0,0-6.606,1.307l-.413.175L50.83,19.541l-.388.269a16.416,16.416,0,0,0-5.573,19.862c.027.063,2.736,6.315,2.736,11.964A31.37,31.37,0,0,1,16.27,82.971H15.188l-.225,0c-5.969,0-10.792,5.108-12.287,13.015C2.566,96.563,0,110.307,0,121.057s2.564,24.493,2.673,25.074c1.5,7.906,6.323,13.013,12.3,13.013.076,0,.154,0,.2,0h1.1A31.37,31.37,0,0,1,47.6,190.476c0,5.614-2.7,11.893-2.728,11.948A16.464,16.464,0,0,0,50.4,222.307l.371.258,31.151,17.42.4.174a16.578,16.578,0,0,0,6.71,1.368,17.881,17.881,0,0,0,13.016-5.5c4.424-4.808,16.428-14.735,25.293-14.735,9.6,0,21.909,11.129,25.461,15.024a17.877,17.877,0,0,0,13.107,5.6h0a16.541,16.541,0,0,0,6.591-1.323l.4-.175,32.29-17.847.382-.267a16.426,16.426,0,0,0,5.562-19.851c-.027-.063-2.74-6.4-2.74-11.974a31.371,31.371,0,0,1,31.335-31.335H240.8l.213,0c5.985,0,10.818-5.108,12.312-13.008.027-.139,2.676-14.06,2.676-25.079C256,110.257,253.437,96.561,253.329,95.983ZM89.194,223.439,61.945,208.2a52.054,52.054,0,0,0,3.648-17.725,49.3,49.3,0,0,0-45.5-49.178,136.716,136.716,0,0,1-2.1-20.241,137.011,137.011,0,0,1,2.1-20.242A49.294,49.294,0,0,0,65.592,51.637,52.035,52.035,0,0,0,61.96,33.95l29-15.926h0a86.552,86.552,0,0,0,11,9.332c9.435,6.725,18.419,10.135,26.7,10.135,8.2,0,17.116-3.344,26.49-9.939A86.133,86.133,0,0,0,166.095,18.4h.006l27.952,15.53a52.065,52.065,0,0,0-3.643,17.711,49.294,49.294,0,0,0,45.505,49.178,137.417,137.417,0,0,1,2.1,20.242,136.874,136.874,0,0,1-2.1,20.243,49.294,49.294,0,0,0-45.506,49.178,52.015,52.015,0,0,0,3.637,17.7l-28.3,15.641a87.873,87.873,0,0,0-11.044-9.756c-9.617-7.141-18.823-10.762-27.361-10.762-8.457,0-17.593,3.553-27.155,10.56A88.573,88.573,0,0,0,89.194,223.439Zm83.592-102.547a45.338,45.338,0,1,0-45.339,45.338A45.39,45.39,0,0,0,172.786,120.891ZM127.447,93.544A27.349,27.349,0,1,1,100.1,120.891,27.38,27.38,0,0,1,127.447,93.544Z" transform="translate(-0.002 7)"/></g></svg>