<svg xmlns="http://www.w3.org/2000/svg" xmlns:xlink="http://www.w3.org/1999/xlink" width="256" height="256" viewBox="0 0 256 256"><defs><clipPath id="b"><rect width="256" height="256"/></clipPath></defs><g id="a" clip-path="url(#b)"><path d="M136.937,138.242l26.872-54.737a23.213,23.213,0,0,1,41.673,0l26.872,54.737,60.364,8.64A23.213,23.213,0,0,1,305.6,186.522l-43.757,42.467,10.437,60.076a23.213,23.213,0,0,1-33.72,24.5l-53.911-28.488-53.911,28.488a23.213,23.213,0,0,1-33.72-24.495l10.437-60.076L63.694,186.522a23.213,23.213,0,0,1,12.879-39.639l60.364-8.635Zm49.751-48.674a4.643,4.643,0,0,0-6.217,2.122L152.291,149.1a12.934,12.934,0,0,1-9.777,7.1l-63.308,9.063a4.643,4.643,0,0,0-2.577,7.925l45.893,44.546a12.944,12.944,0,0,1,3.737,11.5l-10.947,63.011a4.643,4.643,0,0,0,6.746,4.9l56.548-29.885a12.934,12.934,0,0,1,12.085,0l56.548,29.885a4.643,4.643,0,0,0,6.741-4.9l-10.947-63.011a12.935,12.935,0,0,1,3.737-11.5l45.893-44.546a4.643,4.643,0,0,0-2.577-7.925l-63.312-9.063A12.935,12.935,0,0,1,217,149.1L188.814,91.691a4.643,4.643,0,0,0-2.122-2.122Z" transform="translate(-56.646 -65.525)"/></g></svg>